<svg version="1.1" id="Layer_1" xmlns="http://www.w3.org/2000/svg" xmlns:xlink="http://www.w3.org/1999/xlink" x="0px" y="0px"
	 width="100%" viewBox="0 0 1200 1200" enable-background="new 0 0 1200 1200" xml:space="preserve">
<path fill="#216E86" opacity="1.000000" stroke="none" 
	d="
M1.000000,748.000000 
	C1.000000,499.043427 1.000000,250.086853 1.000000,1.065140 
	C400.886780,1.065140 800.773621,1.065140 1201.000000,1.065140 
	C1201.000000,147.027863 1201.000000,293.055969 1200.692627,439.392639 
	C1197.884521,435.350006 1194.059448,433.717712 1189.128662,433.723419 
	C1140.462402,433.779480 1091.796021,433.769135 1043.129761,433.747528 
	C1038.424805,433.745422 1034.467041,435.084808 1032.561523,439.713470 
	C1030.610840,444.451813 1032.151367,448.440918 1035.752197,451.886230 
	C1046.228882,461.910156 1056.625122,472.018311 1067.125977,482.016693 
	C1068.562256,483.384369 1070.414307,484.315460 1072.209961,485.541626 
	C1070.266479,488.026764 1069.296387,489.348450 1068.244141,490.601013 
	C1009.285645,560.783447 950.321045,630.960693 891.350647,701.132996 
	C890.279724,702.407288 889.227661,703.723206 888.000305,704.835999 
	C882.344666,709.963867 875.186462,708.423096 872.279541,701.381042 
	C871.268555,698.931946 870.682434,696.302429 869.964661,693.737854 
	C841.334900,591.439697 812.698608,489.143311 784.103516,386.835449 
	C779.794067,371.416992 771.307312,359.513153 756.308777,352.919128 
	C731.448608,341.989594 697.651978,351.879822 687.908875,386.507263 
	C665.540771,466.004486 642.677551,545.362366 620.014954,624.776794 
	C615.674438,639.987061 611.373291,655.208862 606.973267,670.401917 
	C604.949158,677.391052 600.487427,680.435120 594.574951,678.949158 
	C589.402893,677.649231 587.960571,673.446350 586.886353,668.878845 
	C561.957825,562.883789 536.992615,456.897430 512.049133,350.905914 
	C504.268585,317.844360 496.572601,284.762878 488.761597,251.708542 
	C482.104614,223.537750 462.636322,209.826904 433.707092,211.865540 
	C416.489044,213.078903 398.210785,226.251175 393.740143,244.556152 
	C388.332550,266.697571 384.024323,289.113556 379.495056,311.462372 
	C358.958435,412.795990 338.517975,514.149109 318.028595,615.492310 
	C311.792664,646.335999 305.460083,677.160217 299.266663,708.012329 
	C294.535339,731.580994 273.908875,748.183960 248.997772,748.113037 
	C166.332413,747.877808 83.666008,748.009216 1.000000,748.000000 
z"/>
<path fill="#273651" opacity="1.000000" stroke="none" 
	d="
M1201.000000,592.000000 
	C1201.000000,794.960938 1201.000000,997.921875 1201.000000,1200.941406 
	C801.116028,1200.941406 401.232056,1200.941406 1.000000,1200.941406 
	C1.000000,1083.305542 1.000000,965.610718 1.457913,847.350098 
	C4.248477,846.757812 6.581127,846.708252 8.913778,846.708191 
	C114.229965,846.704346 219.546158,846.723816 324.862305,846.647095 
	C329.990570,846.643311 335.259369,846.402893 340.221649,845.242004 
	C361.350342,840.299316 373.655212,826.482727 378.608124,805.720703 
	C386.089752,774.358459 393.547943,742.990479 400.944122,711.608032 
	C407.068481,685.622070 413.005859,659.591919 419.179230,633.617676 
	C425.044373,608.940125 431.107483,584.309570 437.085083,559.658752 
	C438.360931,554.397522 439.643524,549.137878 440.923035,543.877502 
	C446.411285,562.812317 450.734131,581.736511 455.359436,600.586426 
	C461.122589,624.073425 467.254272,647.470093 473.013306,670.958069 
	C482.540924,709.816284 491.821075,748.735168 501.351532,787.592712 
	C508.578278,817.057373 515.998596,846.474792 523.395691,875.897461 
	C529.291565,899.348938 534.344910,923.065430 541.457947,946.144836 
	C551.317017,978.134460 586.935791,992.672058 617.440979,981.461792 
	C638.387939,973.764099 649.752014,958.008484 654.961243,936.922668 
	C663.110229,903.937744 671.491272,871.010193 679.744385,838.050964 
	C693.480713,783.194519 707.192078,728.331848 720.917358,673.472656 
	C724.353088,659.740540 727.801636,646.011597 731.545349,631.080322 
	C732.398132,633.545715 732.867310,634.764038 733.243774,636.010376 
	C745.846375,677.724792 758.399170,719.454468 771.050232,761.154236 
	C778.871704,786.934814 786.565613,812.759277 794.830017,838.398621 
	C801.486938,859.050964 827.478455,878.565613 855.244141,875.142212 
	C871.896484,873.089111 884.995605,865.482605 895.876709,853.112610 
	C979.737244,757.777100 1063.644897,662.482910 1147.545288,567.182434 
	C1148.708862,565.860718 1149.968384,564.623413 1151.285522,563.239197 
	C1152.889526,564.737427 1154.116821,565.854919 1155.312622,567.005188 
	C1164.680054,576.015808 1174.007202,585.068542 1183.418457,594.033142 
	C1188.493530,598.867371 1193.378662,599.883850 1199.533081,593.048218 
	C1199.925781,592.612122 1200.506592,592.345459 1201.000000,592.000000 
z"/>
<path fill="#97D4C7" opacity="1.000000" stroke="none" 
	d="
M1201.000000,591.531372 
	C1200.506592,592.345459 1199.925781,592.612122 1199.533081,593.048218 
	C1193.378662,599.883850 1188.493530,598.867371 1183.418457,594.033142 
	C1174.007202,585.068542 1164.680054,576.015808 1155.312622,567.005188 
	C1154.116821,565.854919 1152.889526,564.737427 1151.285522,563.239197 
	C1149.968384,564.623413 1148.708862,565.860718 1147.545288,567.182434 
	C1063.644897,662.482910 979.737244,757.777100 895.876709,853.112610 
	C884.995605,865.482605 871.896484,873.089111 855.244141,875.142212 
	C827.478455,878.565613 801.486938,859.050964 794.830017,838.398621 
	C786.565613,812.759277 778.871704,786.934814 771.050232,761.154236 
	C758.399170,719.454468 745.846375,677.724792 733.243774,636.010376 
	C732.867310,634.764038 732.398132,633.545715 731.545349,631.080322 
	C727.801636,646.011597 724.353088,659.740540 720.917358,673.472656 
	C707.192078,728.331848 693.480713,783.194519 679.744385,838.050964 
	C671.491272,871.010193 663.110229,903.937744 654.961243,936.922668 
	C649.752014,958.008484 638.387939,973.764099 617.440979,981.461792 
	C586.935791,992.672058 551.317017,978.134460 541.457947,946.144836 
	C534.344910,923.065430 529.291565,899.348938 523.395691,875.897461 
	C515.998596,846.474792 508.578278,817.057373 501.351532,787.592712 
	C491.821075,748.735168 482.540924,709.816284 473.013306,670.958069 
	C467.254272,647.470093 461.122589,624.073425 455.359436,600.586426 
	C450.734131,581.736511 446.411285,562.812317 440.923035,543.877502 
	C439.643524,549.137878 438.360931,554.397522 437.085083,559.658752 
	C431.107483,584.309570 425.044373,608.940125 419.179230,633.617676 
	C413.005859,659.591919 407.068481,685.622070 400.944122,711.608032 
	C393.547943,742.990479 386.089752,774.358459 378.608124,805.720703 
	C373.655212,826.482727 361.350342,840.299316 340.221649,845.242004 
	C335.259369,846.402893 329.990570,846.643311 324.862305,846.647095 
	C219.546158,846.723816 114.229965,846.704346 8.913778,846.708191 
	C6.581127,846.708252 4.248477,846.757812 1.457913,846.892151 
	C1.000000,814.312439 1.000000,781.624878 1.000000,748.468628 
	C83.666008,748.009216 166.332413,747.877808 248.997772,748.113037 
	C273.908875,748.183960 294.535339,731.580994 299.266663,708.012329 
	C305.460083,677.160217 311.792664,646.335999 318.028595,615.492310 
	C338.517975,514.149109 358.958435,412.795990 379.495056,311.462372 
	C384.024323,289.113556 388.332550,266.697571 393.740143,244.556152 
	C398.210785,226.251175 416.489044,213.078903 433.707092,211.865540 
	C462.636322,209.826904 482.104614,223.537750 488.761597,251.708542 
	C496.572601,284.762878 504.268585,317.844360 512.049133,350.905914 
	C536.992615,456.897430 561.957825,562.883789 586.886353,668.878845 
	C587.960571,673.446350 589.402893,677.649231 594.574951,678.949158 
	C600.487427,680.435120 604.949158,677.391052 606.973267,670.401917 
	C611.373291,655.208862 615.674438,639.987061 620.014954,624.776794 
	C642.677551,545.362366 665.540771,466.004486 687.908875,386.507263 
	C697.651978,351.879822 731.448608,341.989594 756.308777,352.919128 
	C771.307312,359.513153 779.794067,371.416992 784.103516,386.835449 
	C812.698608,489.143311 841.334900,591.439697 869.964661,693.737854 
	C870.682434,696.302429 871.268555,698.931946 872.279541,701.381042 
	C875.186462,708.423096 882.344666,709.963867 888.000305,704.835999 
	C889.227661,703.723206 890.279724,702.407288 891.350647,701.132996 
	C950.321045,630.960693 1009.285645,560.783447 1068.244141,490.601013 
	C1069.296387,489.348450 1070.266479,488.026764 1072.209961,485.541626 
	C1070.414307,484.315460 1068.562256,483.384369 1067.125977,482.016693 
	C1056.625122,472.018311 1046.228882,461.910156 1035.752197,451.886230 
	C1032.151367,448.440918 1030.610840,444.451813 1032.561523,439.713470 
	C1034.467041,435.084808 1038.424805,433.745422 1043.129761,433.747528 
	C1091.796021,433.769135 1140.462402,433.779480 1189.128662,433.723419 
	C1194.059448,433.717712 1197.884521,435.350006 1200.692627,439.850586 
	C1201.000000,490.354218 1201.000000,540.708435 1201.000000,591.531372 
z"/>
</svg>