<?xml version="1.0" encoding="UTF-8"?>
<svg version="1.1" xmlns="http://www.w3.org/2000/svg" width="1200" height="244">
<path d="M0 0 C80.52 0 161.04 0 244 0 C244 80.52 244 161.04 244 244 C163.48 244 82.96 244 0 244 C0 163.48 0 82.96 0 0 Z " fill="#216E86" transform="translate(0,0)"/>
<path d="M0 0 C1.60114136 3.10015104 2.63922571 5.997879 3.515625 9.3828125 C3.7940625 10.454104 4.0725 11.52539551 4.359375 12.62915039 C4.65328125 13.78278076 4.9471875 14.93641113 5.25 16.125 C5.559375 17.32697021 5.86875 18.52894043 6.1875 19.76733398 C8.24659465 27.83968123 10.16336647 35.93701427 12 44.0625 C14.07173744 53.21688454 16.32289069 62.30810338 18.75 71.375 C19.04390625 72.48109619 19.3378125 73.58719238 19.640625 74.72680664 C19.9190625 75.75281982 20.1975 76.77883301 20.484375 77.8359375 C20.72897461 78.73876465 20.97357422 79.6415918 21.22558594 80.57177734 C21.96283393 82.8834635 22.77696756 84.90566075 24 87 C27.55058313 88.63873067 32.16715473 88.59955122 36 88 C38.91931709 86.57880979 40.64441293 85.63873991 42.24188232 82.76921082 C42.52396545 81.90330826 42.80604858 81.0374057 43.09667969 80.14526367 C43.41809937 79.16294769 43.73951904 78.18063171 44.07067871 77.16854858 C45.67362446 71.70325737 47.10062635 66.20799103 48.453125 60.67578125 C48.75820984 59.44836716 49.06329468 58.22095306 49.37762451 56.9563446 C50.17753083 53.73366932 50.97232103 50.50979235 51.76452637 47.28521729 C52.578222 43.97877317 53.39879796 40.67403769 54.21875 37.36914062 C55.81875778 30.91429529 57.4120185 24.45781386 59 18 C61.12221416 20.12221416 61.48538994 21.06440325 62.296875 23.8671875 C62.53027588 24.66116943 62.76367676 25.45515137 63.00415039 26.27319336 C63.25028076 27.13178955 63.49641113 27.99038574 63.75 28.875 C64.01095459 29.75744385 64.27190918 30.6398877 64.54077148 31.54907227 C65.91996355 36.22063591 67.25381059 40.90263896 68.55078125 45.59765625 C68.8044043 46.49307129 69.05802734 47.38848633 69.31933594 48.31103516 C69.804092 50.02424335 70.27546141 51.74131274 70.73144531 53.46240234 C72.18274986 58.54614467 73.77932018 61.54917218 78 65 C81.10953379 66.5547669 83.56266761 66.28644437 87 66 C95.13994677 62.10698198 100.7181146 53.62171819 106.25 46.75 C110.34822522 41.67737158 114.73109151 36.94092006 119.19775391 32.19677734 C123.24867197 27.87097978 127.01887484 23.38190872 130.72265625 18.75390625 C134.94171814 13.65195319 139.48307519 8.83775311 144 4 C146.18463102 5.03411837 147.8140937 5.8063476 149.5 7.5625 C151.16021153 9.39148463 151.16021153 9.39148463 155 10 C155 50.59 155 91.18 155 133 C74.48 133 -6.04 133 -89 133 C-89 109.24 -89 85.48 -89 61 C-54.3125 60.75 -54.3125 60.75 -43.3762207 60.70214844 C-40.12969249 60.66891167 -40.12969249 60.66891167 -36.88322449 60.63043213 C-35.44183263 60.61585715 -34.00034909 60.60904813 -32.55888367 60.60845947 C-30.36978151 60.60603625 -28.18223919 60.57865995 -25.9934082 60.54589844 C-24.76096878 60.53701599 -23.52852936 60.52813354 -22.25874329 60.51898193 C-18.35200224 59.89680097 -16.72651226 58.83382229 -14 56 C-12.8727856 53.83535116 -12.8727856 53.83535116 -12.35620117 51.43994141 C-12.12637543 50.55880676 -11.89654968 49.67767212 -11.65975952 48.76983643 C-11.33317856 47.3987674 -11.33317856 47.3987674 -11 46 C-10.66556381 44.6813797 -10.66556381 44.6813797 -10.32437134 43.33612061 C-9.62647611 40.54952713 -8.96017439 37.75688003 -8.30078125 34.9609375 C-8.0608696 33.95406891 -7.82095795 32.94720032 -7.57377625 31.90982056 C-6.8172821 28.73219001 -6.06482332 25.5536203 -5.3125 22.375 C-4.79649182 20.20436339 -4.28021826 18.03378985 -3.76367188 15.86328125 C-2.50604797 10.57624552 -1.25172483 5.28843528 0 0 Z " fill="#273651" transform="translate(89,111)"/>
<path d="M0 0 C1.30130859 -0.020625 2.60261719 -0.04125 3.94335938 -0.0625 C5.18794922 -0.06765625 6.43253906 -0.0728125 7.71484375 -0.078125 C8.85945068 -0.0874707 10.00405762 -0.09681641 11.18334961 -0.10644531 C14.48135228 0.30185486 15.01246497 0.76851547 17.0625 3.25 C18.12397927 5.98872361 19.05513136 8.67393279 19.92578125 11.47265625 C20.19450043 12.30949951 20.4632196 13.14634277 20.74008179 14.00854492 C21.62651454 16.77400489 22.50053711 19.54323432 23.375 22.3125 C24.30479576 25.22177701 25.23807687 28.12991972 26.17176819 31.03794861 C26.8173693 33.04875986 27.46199815 35.05988351 28.10569763 37.07130432 C31.84827898 48.74858881 35.74796392 60.37285299 39.65151978 71.99710083 C45.53208393 89.51425267 45.53208393 89.51425267 48.0625 98.25 C51.84890811 89.50862726 54.6882846 80.45485455 57.60632324 71.39846802 C58.51462171 68.57962245 59.42720332 65.76219429 60.34082031 62.94506836 C62.88453163 55.09756164 65.4181505 47.24680102 67.95166016 39.39599609 C69.45189201 34.74732106 70.95485473 30.09953575 72.45925903 25.45220947 C73.3002716 22.85033155 74.13741508 20.24723 74.97436523 17.64404297 C75.4879433 16.05560741 76.0016873 14.46722549 76.515625 12.87890625 C76.74522415 12.16107468 76.9748233 11.4432431 77.21138 10.70365906 C79.39019417 3.99560829 79.39019417 3.99560829 81.0625 1.25 C85.63912216 -1.03831108 92.03747292 0.06497295 97.0625 0.0625 C98.3721875 0.05025391 99.681875 0.03800781 101.03125 0.02539062 C102.90296875 0.02249023 102.90296875 0.02249023 104.8125 0.01953125 C105.96234375 0.01542236 107.1121875 0.01131348 108.296875 0.00708008 C111.0625 0.25 111.0625 0.25 113.0625 2.25 C113.55755615 4.33380127 113.55755615 4.33380127 113.91308594 7.00488281 C114.05474182 8.04360535 114.19639771 9.08232788 114.34234619 10.15252686 C114.4923407 11.32422424 114.64233521 12.49592163 114.796875 13.703125 C115.04724518 15.58901337 115.04724518 15.58901337 115.30267334 17.51300049 C115.90636805 22.08985532 116.48581186 26.66967422 117.0625 31.25 C117.175867 32.14919159 117.28923401 33.04838318 117.40603638 33.974823 C119.13684253 47.72578051 120.82250312 61.4821064 122.49121094 75.24072266 C123.18076254 80.92427145 123.87753836 86.60691095 124.57593155 92.28937912 C125.1183376 96.71224093 125.65588036 101.13568395 126.19207001 105.55930328 C126.44707424 107.65656077 126.70382116 109.75360719 126.96240997 111.85042572 C127.32153084 114.76655061 127.67379273 117.68342857 128.02441406 120.60058594 C128.13033875 121.44839127 128.23626343 122.29619659 128.34539795 123.16969299 C128.98484877 128.56710579 129.23741587 133.8130248 129.0625 139.25 C128.0625 140.25 128.0625 140.25 125.56225586 140.36352539 C124.47823486 140.35828857 123.39421387 140.35305176 122.27734375 140.34765625 C121.10751953 140.34443359 119.93769531 140.34121094 118.73242188 140.33789062 C117.50072266 140.32951172 116.26902344 140.32113281 115 140.3125 C113.14665039 140.30573242 113.14665039 140.30573242 111.25585938 140.29882812 C108.19135883 140.28699608 105.12695279 140.27051173 102.0625 140.25 C100.64970302 134.97339358 99.67657131 129.92563352 99.11694336 124.47631836 C99.04022903 123.74512283 98.96351471 123.01392731 98.88447571 122.26057434 C98.63505433 119.87085336 98.39369402 117.48039211 98.15234375 115.08984375 C97.97877768 113.41405207 97.80466058 111.73831738 97.63002014 110.06263733 C97.17334014 105.66825894 96.72331792 101.27322539 96.27496338 96.87799072 C95.55577309 89.84078155 94.82556031 82.80470442 94.09695625 75.76846504 C93.84434003 73.32090747 93.59403954 70.87312245 93.34422302 68.42527771 C93.18905841 66.91494521 93.03387255 65.4046149 92.87866211 63.89428711 C92.67786293 61.92860023 92.67786293 61.92860023 92.4730072 59.92320251 C92.07366498 56.34990379 91.59078338 52.80597102 91.0625 49.25 C90.86364197 49.86132278 90.66478394 50.47264557 90.4598999 51.10249329 C73.48429834 103.27331934 73.48429834 103.27331934 66 125.125 C65.74915649 125.86037994 65.49831299 126.59575989 65.23986816 127.35342407 C64.54759213 129.38009349 63.85101588 131.40521549 63.15234375 133.4296875 C62.76941162 134.54069824 62.38647949 135.65170898 61.99194336 136.79638672 C61.0625 139.25 61.0625 139.25 60.0625 140.25 C58.35477642 140.33713831 56.64351351 140.35700007 54.93359375 140.34765625 C53.38188477 140.34282227 53.38188477 140.34282227 51.79882812 140.33789062 C50.71021484 140.32951172 49.62160156 140.32113281 48.5 140.3125 C46.8612793 140.30573242 46.8612793 140.30573242 45.18945312 140.29882812 C42.48041505 140.28699826 39.77148401 140.27051543 37.0625 140.25 C33.17196567 132.05834358 30.36738426 123.56620908 27.52734375 114.97265625 C27.00251361 113.39510076 26.477325 111.8176645 25.95179749 110.24034119 C24.85565972 106.94734726 23.76245636 103.65339997 22.67163086 100.35864258 C21.28162427 96.16035702 19.88642811 91.96382073 18.48927975 87.76790714 C17.14591169 83.73261754 15.80534307 79.69639952 14.46484375 75.66015625 C14.21314863 74.90319017 13.96145351 74.1462241 13.70213127 73.36631966 C11.04219084 65.36080222 8.40905715 57.35449441 6.0625 49.25 C5.4436481 54.52038951 4.82665292 59.79099289 4.21109009 65.06176758 C3.98731041 66.97652343 3.76316987 68.89123715 3.53866577 70.8059082 C2.20279718 82.2051287 0.90478377 93.6069946 -0.3125 105.01953125 C-0.5348387 107.08700334 -0.75724981 109.15446764 -0.97973633 111.22192383 C-1.30302158 114.2280682 -1.62338307 117.23437803 -1.93466187 120.24179077 C-2.22403348 123.03700552 -2.52320316 125.83101897 -2.82421875 128.625 C-2.90740356 129.45743729 -2.99058838 130.28987457 -3.07629395 131.14753723 C-3.48637665 134.87493829 -3.82251242 137.07751863 -5.9375 140.25 C-8.44360352 140.60644531 -8.44360352 140.60644531 -11.56640625 140.578125 C-12.68337891 140.57296875 -13.80035156 140.5678125 -14.95117188 140.5625 C-16.12228516 140.541875 -17.29339844 140.52125 -18.5 140.5 C-19.67498047 140.49484375 -20.84996094 140.4896875 -22.06054688 140.484375 C-30.78375547 140.40374453 -30.78375547 140.40374453 -31.9375 139.25 C-32.46496639 130.98679782 -31.6065521 122.83163052 -30.57641602 114.64428711 C-30.43171875 113.44766449 -30.28702148 112.25104187 -30.13793945 111.01815796 C-29.74441563 107.77635544 -29.34454794 104.53541814 -28.94149518 101.29478908 C-28.51937068 97.88954795 -28.10504474 94.48335703 -27.68968201 91.07728577 C-26.99258589 85.37033281 -26.29000876 79.66407666 -25.58374023 73.95825195 C-24.76752577 67.36390103 -23.95856075 60.76869322 -23.15373665 54.17294306 C-22.29458142 47.13227552 -21.43066688 40.09219839 -20.56508899 33.05231786 C-20.3165018 31.02812179 -20.06875289 29.00382453 -19.8211689 26.97950554 C-19.35995924 23.21632273 -18.89460665 19.45367637 -18.42797852 15.69116211 C-18.22297981 14.0104084 -18.22297981 14.0104084 -18.01383972 12.29570007 C-17.82245926 10.76311554 -17.82245926 10.76311554 -17.62721252 9.1995697 C-17.51751916 8.31087661 -17.40782579 7.42218351 -17.29480839 6.50656033 C-16.9375 4.25 -16.9375 4.25 -15.9375 1.25 C-11.36536761 -1.03606619 -5.01983247 0.01983144 0 0 Z " fill="#273651" transform="translate(319.9375,60.75)"/>
<path d="M0 0 C5.09854066 2.71922169 6.28986192 6.775157 8 12 C8.70910417 14.63276799 9.37115089 17.24220854 9.97705078 19.8972168 C10.15144684 20.64137848 10.3258429 21.38554016 10.50552368 22.1522522 C11.07391938 24.58341083 11.63470353 27.01625388 12.1953125 29.44921875 C12.59174665 31.15226983 12.98863522 32.8552152 13.38595581 34.55805969 C14.42605194 39.02164989 15.45957263 43.48673793 16.49182129 47.95214844 C17.3355839 51.59722895 18.18395397 55.24122953 19.03257942 58.88518047 C20.78710059 66.41932573 22.53865242 73.95416717 24.28173828 81.4909668 C24.44174316 82.18042892 24.60174805 82.86989105 24.76660156 83.58024597 C25.56623793 87.04387268 26.32521511 90.50981744 27 94 C27.66 94 28.32 94 29 94 C29.19378738 93.3287207 29.38757477 92.65744141 29.5872345 91.96582031 C31.4226612 85.6100202 33.26114547 79.25511333 35.10298634 72.90116882 C36.04956849 69.63527408 36.99500496 66.36905711 37.93774414 63.10205078 C39.02401122 59.33785177 40.11540397 55.57514819 41.20703125 51.8125 C41.70877617 50.06984863 41.70877617 50.06984863 42.22065735 48.29199219 C46.8322026 32.43728911 46.8322026 32.43728911 49.625 29 C53.31942702 27.44445178 57.09803467 26.99983351 61 28 C66.62007434 32.05941636 67.69408528 37.36508254 69.375 43.75 C69.66608643 44.8004248 69.95717285 45.85084961 70.25708008 46.93310547 C70.87142649 49.15436869 71.47877916 51.37757652 72.07958984 53.60253906 C73.28386259 58.04780684 74.53378242 62.47967392 75.78344727 66.91235352 C76.66945582 70.06087812 77.54650136 73.21178559 78.421875 76.36328125 C79.36881474 79.76329451 80.33078932 83.15739771 81.328125 86.54296875 C81.69421875 87.78691406 82.0603125 89.03085938 82.4375 90.3125 C82.74558594 91.33988281 83.05367187 92.36726563 83.37109375 93.42578125 C84 96 84 96 84 100 C86.86263798 99.6613397 87.90676286 99.09680873 89.9375 96.98828125 C90.618125 96.10527344 91.29875 95.22226563 92 94.3125 C92.78375 93.31863281 93.5675 92.32476562 94.375 91.30078125 C94.79652344 90.76533691 95.21804687 90.22989258 95.65234375 89.67822266 C98.02660878 86.72157451 100.51838659 83.86654884 103 81 C107.44219283 75.84711261 111.79590234 70.63611203 116.0859375 65.35546875 C118.36619504 62.5493559 120.67791413 59.77152185 123 57 C121.90101148 54.43569346 120.93214232 52.93613395 118.875 51 C117 49 117 49 117 45 C121.68139254 44.97534712 126.36274759 44.95716261 131.04418945 44.94506836 C132.63794614 44.94002843 134.23169819 44.9331965 135.82543945 44.92456055 C138.11150253 44.91248001 140.39750467 44.90676845 142.68359375 44.90234375 C143.40026718 44.89718246 144.11694061 44.89202118 144.85533142 44.88670349 C146.57063672 44.88650737 148.28581266 44.93807993 150 45 C151 46 151 46 151.11352539 49.05102539 C151.11336634 50.39991271 151.10767612 51.74880614 151.09765625 53.09765625 C151.09553383 54.16094398 151.09553383 54.16094398 151.09336853 55.24571228 C151.08775443 57.51801712 151.07519963 59.79022475 151.0625 62.0625 C151.05748681 63.59960796 151.05292359 65.13671745 151.04882812 66.67382812 C151.03778042 70.44925642 151.02050641 74.22461171 151 78 C146.68914241 77.32084333 144.89359122 76.3222714 142 73 C138.40278644 74.4954708 136.36902779 76.52706308 133.8125 79.4375 C133.01972656 80.33855469 132.22695312 81.23960938 131.41015625 82.16796875 C129.14541672 84.82912947 126.9401984 87.52737767 124.75 90.25 C120.65177478 95.32262842 116.26890849 100.05907994 111.80224609 104.80322266 C107.74783811 109.13274694 103.97853325 113.6302165 100.26171875 118.25390625 C97.64611955 121.42966831 94.94593952 124.51070699 92.1875 127.5625 C91.50276611 128.33231201 91.50276611 128.33231201 90.80419922 129.11767578 C87.24125819 133.01706569 84.87261007 134.79193221 79.625 135.375 C75.27649031 134.92515417 73.32723747 133.79790424 70 131 C67.11655142 126.95874725 65.90787707 122.68323811 64.6875 117.9375 C64.26238511 116.34452546 63.83521722 114.75209773 63.40625 113.16015625 C63.06980469 111.90936279 63.06980469 111.90936279 62.7265625 110.63330078 C60.63330144 103.04663619 58.28190577 95.53156435 56 88 C53.26299461 97.61485666 50.65031548 107.24928844 48.24609375 116.953125 C48.01572418 117.87766479 47.78535461 118.80220459 47.54800415 119.75476074 C46.60103842 123.5564498 45.65495523 127.35821692 44.72680664 131.16455078 C44.03559658 133.99268256 43.32963361 136.81679244 42.62109375 139.640625 C42.41681259 140.49376282 42.21253143 141.34690063 42.00205994 142.22589111 C40.59077478 147.78231858 38.92526922 152.70157419 34.25 156.375 C30.08671348 157.53146848 25.93488967 157.48372242 21.75 156.4375 C16.45859893 152.09099197 14.92606675 144.99946481 13.37890625 138.6484375 C13.15226791 137.75371735 12.92562958 136.85899719 12.69212341 135.93716431 C11.97244517 133.08546769 11.26738668 130.23038432 10.5625 127.375 C10.09402789 125.5127869 9.62463367 123.65080551 9.15429688 121.7890625 C6.3690994 110.72172182 3.69921169 99.62778017 1.07519531 88.52124023 C-0.23142594 83.00106762 -1.60007505 77.49726627 -3 72 C-3.33 72 -3.66 72 -4 72 C-4.13923386 72.61308014 -4.27846771 73.22616028 -4.42192078 73.8578186 C-5.87814662 80.25431497 -7.35830116 86.64493663 -8.85229492 93.03271484 C-9.40627158 95.41541364 -9.95418961 97.7995297 -10.49584961 100.18505859 C-11.27679386 103.61949538 -12.07959182 107.04819718 -12.88671875 110.4765625 C-13.24173714 112.07064438 -13.24173714 112.07064438 -13.60392761 113.69692993 C-15.05070168 119.73191274 -16.49603746 123.65936549 -21 128 C-23.89914911 129.44957456 -26.414283 129.11932924 -29.65283203 129.11352539 C-30.67739502 129.11374443 -30.67739502 129.11374443 -31.72265625 129.1139679 C-33.9844071 129.11327023 -36.246076 129.10548465 -38.5078125 129.09765625 C-40.07437088 129.09579155 -41.64092984 129.09436789 -43.20748901 129.09336853 C-47.33389898 129.08954743 -51.46027384 129.0797206 -55.58666992 129.06866455 C-59.79605637 129.0584417 -64.00544847 129.05386903 -68.21484375 129.04882812 C-76.47658042 129.03809798 -84.7382818 129.02050446 -93 129 C-93 122.4 -93 115.8 -93 109 C-91.45618652 108.98541748 -89.91237305 108.97083496 -88.32177734 108.95581055 C-82.58521551 108.8977681 -76.84904374 108.82053462 -71.11279297 108.73754883 C-68.63173765 108.70432764 -66.15060727 108.67628702 -63.66943359 108.65356445 C-60.09960999 108.6199678 -56.53047255 108.56764717 -52.9609375 108.51171875 C-51.85446869 108.50532883 -50.74799988 108.4989389 -49.60800171 108.49235535 C-41.8597238 108.37591939 -41.8597238 108.37591939 -35 105 C-33.78149212 103.21586212 -33.78149212 103.21586212 -33.3671875 101.0078125 C-33.14643555 100.11739258 -32.92568359 99.22697266 -32.69824219 98.30957031 C-32.46782227 97.21741211 -32.23740234 96.12525391 -32 95 C-31.85824341 94.33963745 -31.71648682 93.6792749 -31.57043457 92.99890137 C-30.54339377 88.18307705 -29.58161926 83.35573671 -28.64053345 78.52246094 C-27.9406234 74.92815583 -27.22995802 71.33600348 -26.51979065 67.74371338 C-26.16691926 65.95845749 -25.81456906 64.1730985 -25.4627533 62.38763428 C-23.93826933 54.65702819 -22.3595281 46.93866395 -20.7253418 39.23046875 C-19.68157645 34.30449706 -18.67914871 29.37420078 -17.7265625 24.4296875 C-17.51088623 23.33398438 -17.29520996 22.23828125 -17.07299805 21.109375 C-16.66253885 19.02033795 -16.2622269 16.9292698 -15.87426758 14.8359375 C-14.77983596 9.33402146 -13.60296432 5.35209551 -10 1 C-6.78441296 -0.60779352 -3.48758995 -0.46277636 0 0 Z " fill="#95D2C5" transform="translate(93,43)"/>
<path d="M0 0 C1.53527344 -0.01836914 1.53527344 -0.01836914 3.1015625 -0.03710938 C4.07867188 -0.03904297 5.05578125 -0.04097656 6.0625 -0.04296875 C7.41021484 -0.04913208 7.41021484 -0.04913208 8.78515625 -0.05541992 C11 0.1875 11 0.1875 13 2.1875 C13.24888897 4.82026005 13.24888897 4.82026005 13.24723816 8.22975159 C13.25143265 9.51842133 13.25562714 10.80709106 13.25994873 12.1348114 C13.25446484 13.57107619 13.24878185 15.00734022 13.24291992 16.44360352 C13.24399235 17.94964683 13.24593043 19.45568975 13.24867249 20.96173096 C13.25352993 25.058697 13.24585429 29.15555453 13.23571944 33.25250745 C13.22695495 37.53218293 13.22869607 41.81185485 13.2290802 46.09153748 C13.22814292 53.27841006 13.21944982 60.4652405 13.20581055 67.65209961 C13.19007838 75.97274161 13.18481261 84.29333743 13.1855461 92.61399323 C13.1861555 100.60488629 13.18105853 108.59576423 13.17275429 116.58665276 C13.1692149 119.99374446 13.16739011 123.40083082 13.16686058 126.80792427 C13.16585933 130.81581958 13.15978063 134.8236758 13.14969444 138.83155823 C13.14676263 140.30662738 13.14554544 141.78170104 13.14612198 143.25677299 C13.14660931 145.26193022 13.14036356 147.2670858 13.13371277 149.27223206 C13.13203692 150.39698724 13.13036108 151.52174242 13.12863445 152.68058109 C13 155.1875 13 155.1875 12 156.1875 C10.43827255 156.27435603 8.87270656 156.29452219 7.30859375 156.28515625 C6.36435547 156.28193359 5.42011719 156.27871094 4.44726562 156.27539062 C3.45404297 156.26701172 2.46082031 156.25863281 1.4375 156.25 C0.44041016 156.24548828 -0.55667969 156.24097656 -1.58398438 156.23632812 C-4.05601487 156.22450023 -6.52801472 156.20656415 -9 156.1875 C-9.99 152.2275 -10.98 148.2675 -12 144.1875 C-13.258125 145.404375 -14.51625 146.62125 -15.8125 147.875 C-24.79559649 155.84273865 -36.09647317 159.75026821 -48.07421875 159.43359375 C-66.21590407 157.9076576 -81.2417319 151.62908957 -93.25 137.4375 C-104.30780399 122.85013434 -108.55146186 105.61609533 -106.609375 87.5546875 C-104.19002755 70.36278745 -96.01785086 55.66632098 -82.203125 45.03515625 C-68.26494312 35.7233483 -53.3716724 32.29317974 -36.71875 34.65234375 C-28.35704725 36.47338468 -21.00739688 40.02716423 -15 46.1875 C-14.96241577 44.30260864 -14.96241577 44.30260864 -14.92407227 42.37963867 C-14.82997705 37.72230643 -14.72976141 33.06512259 -14.62768555 28.40795898 C-14.58434471 26.39139271 -14.54266902 24.37478993 -14.50268555 22.3581543 C-14.44496253 19.46131383 -14.38127378 16.56465694 -14.31640625 13.66796875 C-14.29969376 12.76475388 -14.28298126 11.861539 -14.26576233 10.93095398 C-14.24581711 10.09030899 -14.22587189 9.249664 -14.20532227 8.38354492 C-14.18977798 7.64408127 -14.1742337 6.90461761 -14.15821838 6.14274597 C-14 4.1875 -14 4.1875 -13 1.1875 C-9.11308052 -0.75595974 -4.27485419 0.00269197 0 0 Z M-69.81640625 68.85546875 C-78.20860902 78.04692893 -80.61900813 88.95654167 -80.3125 101.171875 C-79.75882277 110.96273406 -75.3035527 119.3460826 -68.1171875 125.90625 C-59.11251421 133.10998863 -50.47831158 134.43946671 -39 133.1875 C-28.82718205 130.36880586 -21.91637502 125.55973723 -16.32421875 116.62109375 C-11.23930725 107.27625639 -10.37496083 96.44968068 -12.69140625 86.09765625 C-16.34570405 75.19592265 -22.02217964 67.93826346 -32 62.1875 C-44.95756167 56.36981925 -59.48528212 59.36860852 -69.81640625 68.85546875 Z " fill="#273651" transform="translate(702,44.8125)"/>
<path d="M0 0 C2.42876147 1.92295118 4.70991883 3.90905632 7 6 C6.95875 4.948125 6.9175 3.89625 6.875 2.8125 C6.99553699 -0.86387823 7.27833134 -4.27833134 10 -7 C13.1382345 -7.24966567 16.29049613 -7.18521791 19.4375 -7.1875 C20.32244141 -7.19974609 21.20738281 -7.21199219 22.11914062 -7.22460938 C22.96541016 -7.22654297 23.81167969 -7.22847656 24.68359375 -7.23046875 C25.46275146 -7.23457764 26.24190918 -7.23868652 27.04467773 -7.24291992 C29 -7 29 -7 31 -5 C31.24888897 -2.94787598 31.24888897 -2.94787598 31.24723816 -0.36914062 C31.25143265 0.60676025 31.25562714 1.58266113 31.25994873 2.58813477 C31.25432922 3.66248779 31.24870972 4.73684082 31.24291992 5.84375 C31.24481827 6.97224365 31.24671661 8.1007373 31.24867249 9.26342773 C31.25238961 13.00902157 31.24166266 16.75442327 31.23046875 20.5 C31.22927737 23.09309873 31.2288237 25.68619789 31.2290802 28.27929688 C31.22751371 33.72008146 31.21945313 39.1607961 31.20581055 44.6015625 C31.19008454 50.89656731 31.18481242 57.19151108 31.1855461 63.48653412 C31.18615601 69.53603579 31.18094616 75.5855125 31.17275429 81.63500977 C31.16956312 84.21231974 31.16759917 86.78963152 31.16686058 89.36694336 C31.16470176 92.96341041 31.15596739 96.55979957 31.14526367 100.15625 C31.14571686 101.23060303 31.14617004 102.30495605 31.14663696 103.41186523 C31.14237198 104.38776611 31.13810699 105.36366699 31.13371277 106.36914062 C31.13203692 107.22012329 31.13036108 108.07110596 31.12863445 108.94787598 C31 111 31 111 30 113 C26.541824 113.0868329 23.08392656 113.14033282 19.625 113.1875 C18.64015625 113.21263672 17.6553125 113.23777344 16.640625 113.26367188 C15.69960937 113.27333984 14.75859375 113.28300781 13.7890625 113.29296875 C12.91975098 113.3086792 12.05043945 113.32438965 11.15478516 113.34057617 C10.44370605 113.22818604 9.73262695 113.1157959 9 113 C6.43383368 109.15075052 6.44902324 106.5650696 6 102 C5.56171875 102.36351562 5.1234375 102.72703125 4.671875 103.1015625 C-7.97407759 113.12579321 -20.89559297 117.26414796 -36.875 115.72265625 C-52.14683067 113.63471065 -66.27467918 106.08830038 -76 94 C-86.84075287 77.73887069 -92.04908525 59.34962964 -88.31640625 39.83984375 C-85.03834344 26.68678673 -79.64907157 16.51666579 -70 7 C-69.36191406 6.35160156 -68.72382812 5.70320313 -68.06640625 5.03515625 C-50.05420552 -12.07830681 -20.11914489 -14.44007473 0 0 Z M-52.75 26.125 C-59.18911259 33.02725062 -62.51693996 42.66486468 -63 52 C-62.46020421 64.69869606 -59.50459266 74.52819307 -50.12109375 83.30859375 C-41.57593898 90.12268586 -32.65637771 90.77170786 -22 90 C-12.38731113 88.15476271 -5.02627685 82.57629892 0.6640625 74.6953125 C6.20097347 65.33760917 7.4803688 55.27567618 5.3125 44.62109375 C2.30484091 33.80605294 -3.29589812 25.49885054 -13.09375 19.77734375 C-26.87243994 13.00929007 -41.51703658 16.00805454 -52.75 26.125 Z " fill="#273651" transform="translate(1015,88)"/>
<path d="M0 0 C12.99967231 10.79293781 19.77219743 25.94792383 21.72265625 42.5546875 C22.86191199 56.70713202 22.86191199 56.70713202 20 61 C17.22170601 61.31602142 14.66137215 61.43738424 11.87841797 61.43237305 C11.03931885 61.4425647 10.20021973 61.45275635 9.33569336 61.46325684 C6.55445799 61.49351836 3.77356624 61.50267271 0.9921875 61.51171875 C-0.93310706 61.52855571 -2.85839057 61.5467046 -4.78366089 61.56611633 C-9.85695948 61.61372933 -14.93021326 61.64346546 -20.00366211 61.66955566 C-25.17831274 61.69930434 -30.35280874 61.7458541 -35.52734375 61.79101562 C-45.68481514 61.8771772 -55.84231825 61.94446515 -66 62 C-65.23160387 63.92051892 -64.45533149 65.83788773 -63.67578125 67.75390625 C-63.24434814 68.8219751 -62.81291504 69.89004395 -62.3684082 70.99047852 C-58.75395408 78.93969813 -52.61717393 83.6373711 -44.6875 86.97265625 C-33.75514308 90.73941384 -23.47818249 89.65367652 -13 85 C-10.84632358 83.70707983 -8.81293186 82.37854533 -6.81640625 80.85546875 C-5 80 -5 80 -2.57421875 80.00390625 C1.08024414 81.41800039 2.46386218 83.6046426 4.75 86.75 C5.52859375 87.79671875 6.3071875 88.8434375 7.109375 89.921875 C10.02209227 94.66406758 10.02209227 94.66406758 10 98 C3.11967502 107.17376663 -10.90338393 111.90553159 -21.85546875 113.72314453 C-39.53254995 116.00522674 -56.31614554 112.55309788 -70.828125 101.9296875 C-83.99643527 90.65987595 -92.56584595 75.36973032 -94.18457031 58.02197266 C-95.36115291 40.12352727 -90.89977779 22.15851911 -79.2434082 8.16308594 C-58.97371078 -14.61998164 -24.58007336 -17.86999586 0 0 Z M-58.04296875 22.0078125 C-62.93082709 27.82321752 -64.26065033 32.4667884 -67 40 C-46.54 40 -26.08 40 -5 40 C-7.32159725 29.55281237 -10.89379816 21.98737584 -20 16 C-33.12205642 9.26735536 -47.54766663 11.69311787 -58.04296875 22.0078125 Z " fill="#273651" transform="translate(559,90)"/>
<path d="M0 0 C1.95372794 1.45992857 2.90455028 2.42872355 3.98046875 4.6171875 C4.10575732 7.87469028 2.51967673 9.19453189 0.4375 11.625 C-2.57341505 15.10252825 -2.57341505 15.10252825 -5.33984375 18.76953125 C-6.5 20.4375 -6.5 20.4375 -8.9375 22.75 C-14.29044783 23.05299705 -17.39732075 20.92405579 -21.64453125 18.08984375 C-31.76866232 12.17403974 -43.19197163 10.67734516 -54.51953125 13.08984375 C-58.6433792 14.21574085 -61.00390757 15.69192857 -63.8125 18.875 C-65.40405687 22.942312 -65.65963794 26.68495346 -63.9375 30.75 C-58.4572784 36.87972935 -51.70194465 38.95891482 -44.07281494 41.44641113 C-40.57447305 42.59168262 -37.09742963 43.79764634 -33.62109375 45.0078125 C-32.94449707 45.24302612 -32.26790039 45.47823975 -31.57080078 45.72058105 C-17.27955188 50.74764912 -1.99474022 57.49668861 5.0625 71.75 C8.39554824 81.28114821 8.72800184 93.84756009 5.22265625 103.41796875 C-0.47899275 114.87885916 -8.90588253 121.79630289 -20.44140625 126.92578125 C-38.77425528 132.97935112 -60.41053547 131.41264922 -77.76928711 123.16577148 C-85.53450672 119.20557866 -93.83798088 113.91123876 -98.9375 106.75 C-99.08057448 102.4243815 -98.57896251 100.4995225 -95.7578125 97.203125 C-94.86835937 96.47609375 -93.97890625 95.7490625 -93.0625 95 C-92.17820312 94.26265625 -91.29390625 93.5253125 -90.3828125 92.765625 C-89.57585938 92.10046875 -88.76890625 91.4353125 -87.9375 90.75 C-87.39351562 90.16863281 -86.84953125 89.58726562 -86.2890625 88.98828125 C-84.9375 87.75 -84.9375 87.75 -82.1875 87.6875 C-79.07497177 88.70505731 -78.1047097 89.31301296 -75.8125 91.4375 C-65.69686418 100.74567931 -53.76281614 103.21066788 -40.50390625 103 C-33.16929791 102.4858544 -28.16200875 99.8470817 -22.9375 94.75 C-21.71352225 91.07806676 -21.21153769 87.55297686 -21.9375 83.75 C-27.87299848 72.86825279 -41.41362086 70.1593649 -52.5 66.75 C-66.54372697 62.41650119 -81.38356463 57.17877938 -89.62890625 44.05859375 C-94.47186254 34.57964511 -95.6925318 24.04293008 -93.18359375 13.6171875 C-92.24523727 11.21057913 -91.201501 9.00053836 -89.9375 6.75 C-89.380625 5.71875 -88.82375 4.6875 -88.25 3.625 C-66.5229448 -23.38701458 -25.73325341 -18.15649657 0 0 Z " fill="#273651" transform="translate(834.9375,73.25)"/>
<path d="M0 0 C1.23459961 -0.00580078 1.23459961 -0.00580078 2.49414062 -0.01171875 C8.56078396 -0.00171604 8.56078396 -0.00171604 9.6875 1.125 C9.78630797 2.60152664 9.81829245 4.08267236 9.8203125 5.5625 C9.82160156 6.45710938 9.82289062 7.35171875 9.82421875 8.2734375 C9.82035156 9.21445312 9.81648438 10.15546875 9.8125 11.125 C9.81636719 12.06601562 9.82023437 13.00703125 9.82421875 13.9765625 C9.82292969 14.87117188 9.82164063 15.76578125 9.8203125 16.6875 C9.81918457 17.51378906 9.81805664 18.34007813 9.81689453 19.19140625 C9.6875 21.125 9.6875 21.125 8.6875 22.125 C5.20089468 22.66807072 1.70463326 23.09148655 -1.796875 23.52734375 C-4.95705492 24.06457434 -7.47030613 24.6621061 -10.3125 26.125 C-12.0184554 29.62220858 -12.45507001 33.01637327 -12.859375 36.83984375 C-12.98844238 38.0462854 -12.98844238 38.0462854 -13.12011719 39.27709961 C-13.18360352 39.88690674 -13.24708984 40.49671387 -13.3125 41.125 C-12.6512915 41.11976318 -11.99008301 41.11452637 -11.30883789 41.10913086 C-8.33090149 41.08842344 -5.35298018 41.07535988 -2.375 41.0625 C-0.81362305 41.04993164 -0.81362305 41.04993164 0.77929688 41.03710938 C1.76865234 41.03388672 2.75800781 41.03066406 3.77734375 41.02734375 C4.69378662 41.02210693 5.61022949 41.01687012 6.55444336 41.01147461 C8.6875 41.125 8.6875 41.125 9.6875 42.125 C9.93906269 45.76399175 9.87272226 49.41583673 9.875 53.0625 C9.88724609 54.09052734 9.89949219 55.11855469 9.91210938 56.17773438 C9.91404297 57.15935547 9.91597656 58.14097656 9.91796875 59.15234375 C9.92207764 60.05718506 9.92618652 60.96202637 9.93041992 61.89428711 C9.6875 64.125 9.6875 64.125 7.6875 66.125 C5.53271484 66.35205078 5.53271484 66.35205078 2.8984375 66.3203125 C1.95742187 66.31386719 1.01640625 66.30742188 0.046875 66.30078125 C-0.93796875 66.28402344 -1.9228125 66.26726562 -2.9375 66.25 C-3.93007812 66.24097656 -4.92265625 66.23195313 -5.9453125 66.22265625 C-8.40128134 66.19904116 -10.85677168 66.16610799 -13.3125 66.125 C-13.30805878 67.27092117 -13.30361755 68.41684235 -13.29904175 69.5974884 C-13.25854252 80.38347612 -13.22853815 91.16944846 -13.20887566 101.95549488 C-13.19842725 107.50104243 -13.18424877 113.04652872 -13.16162109 118.59204102 C-13.13993042 123.94124137 -13.12793934 129.29038271 -13.12274551 134.63962364 C-13.11904297 136.68302019 -13.11181306 138.72641342 -13.10103989 140.76978493 C-13.08657518 143.62629872 -13.08451995 146.48256695 -13.08544922 149.33911133 C-13.07825867 150.18859344 -13.07106812 151.03807556 -13.06365967 151.91329956 C-13.07751723 155.83582829 -13.08666176 157.78624264 -15.3125 161.125 C-17.61914062 161.49731445 -17.61914062 161.49731445 -20.46875 161.48828125 C-21.49097656 161.48763672 -22.51320313 161.48699219 -23.56640625 161.48632812 C-24.63761719 161.47021484 -25.70882813 161.45410156 -26.8125 161.4375 C-27.88371094 161.44072266 -28.95492188 161.44394531 -30.05859375 161.44726562 C-38.04562996 161.39187004 -38.04562996 161.39187004 -40.3125 159.125 C-40.50081473 156.17225086 -40.56417271 153.31397147 -40.53955078 150.36083984 C-40.53984283 149.45346573 -40.54013489 148.54609161 -40.54043579 147.61122131 C-40.53903898 144.60269714 -40.52346128 141.59441858 -40.5078125 138.5859375 C-40.50408362 136.50371435 -40.50123606 134.42148945 -40.49923706 132.33926392 C-40.49159077 126.85159483 -40.47193375 121.36403116 -40.4498291 115.87640381 C-40.42939209 110.27959621 -40.42023994 104.68277163 -40.41015625 99.0859375 C-40.38868879 88.09891195 -40.35454086 77.11196473 -40.3125 66.125 C-41.57707031 66.14240234 -41.57707031 66.14240234 -42.8671875 66.16015625 C-43.96289062 66.16917969 -45.05859375 66.17820312 -46.1875 66.1875 C-47.27804687 66.19910156 -48.36859375 66.21070312 -49.4921875 66.22265625 C-52.3125 66.125 -52.3125 66.125 -54.3125 65.125 C-54.34137236 61.31251574 -54.35925492 57.5000593 -54.375 53.6875 C-54.38337891 52.59888672 -54.39175781 51.51027344 -54.40039062 50.38867188 C-54.40361328 49.35419922 -54.40683594 48.31972656 -54.41015625 47.25390625 C-54.41539307 46.29556885 -54.42062988 45.33723145 -54.42602539 44.34985352 C-54.3125 42.125 -54.3125 42.125 -53.3125 41.125 C-51.12610547 41.05241054 -48.93749611 41.04126217 -46.75 41.0625 C-44.95369141 41.07603516 -44.95369141 41.07603516 -43.12109375 41.08984375 C-42.19425781 41.10144531 -41.26742188 41.11304688 -40.3125 41.125 C-40.34730469 40.12533203 -40.34730469 40.12533203 -40.3828125 39.10546875 C-40.60658439 27.67711864 -39.60471401 18.20579436 -31.81640625 9.44140625 C-23.23474985 1.18902204 -11.35514002 -0.0546358 0 0 Z " fill="#273651" transform="translate(1117.3125,39.875)"/>
<path d="M0 0 C1.23459961 -0.00580078 1.23459961 -0.00580078 2.49414062 -0.01171875 C8.56078396 -0.00171604 8.56078396 -0.00171604 9.6875 1.125 C9.78630797 2.60152664 9.81829245 4.08267236 9.8203125 5.5625 C9.82160156 6.45710938 9.82289062 7.35171875 9.82421875 8.2734375 C9.82035156 9.21445312 9.81648438 10.15546875 9.8125 11.125 C9.81636719 12.06601562 9.82023437 13.00703125 9.82421875 13.9765625 C9.82292969 14.87117188 9.82164063 15.76578125 9.8203125 16.6875 C9.81918457 17.51378906 9.81805664 18.34007813 9.81689453 19.19140625 C9.6875 21.125 9.6875 21.125 8.6875 22.125 C5.46030105 22.62640097 2.22520521 23.02641677 -1.015625 23.4296875 C-5.37258545 24.34857252 -8.22690482 25.80677729 -11.0625 29.25 C-12.25343576 31.98915225 -12.60430075 33.87251513 -12.890625 36.8046875 C-12.9721582 37.61405762 -13.05369141 38.42342773 -13.13769531 39.25732422 C-13.19538086 39.87365723 -13.25306641 40.48999023 -13.3125 41.125 C-12.6512915 41.11976318 -11.99008301 41.11452637 -11.30883789 41.10913086 C-8.33090149 41.08842344 -5.35298018 41.07535988 -2.375 41.0625 C-0.81362305 41.04993164 -0.81362305 41.04993164 0.77929688 41.03710938 C1.76865234 41.03388672 2.75800781 41.03066406 3.77734375 41.02734375 C4.69378662 41.02210693 5.61022949 41.01687012 6.55444336 41.01147461 C8.6875 41.125 8.6875 41.125 9.6875 42.125 C9.77463831 43.83272358 9.79450007 45.54398649 9.78515625 47.25390625 C9.78032227 48.80561523 9.78032227 48.80561523 9.77539062 50.38867188 C9.76282227 52.0215918 9.76282227 52.0215918 9.75 53.6875 C9.74548828 54.77998047 9.74097656 55.87246094 9.73632812 56.99804688 C9.72449826 59.70708495 9.70801543 62.41601599 9.6875 65.125 C7.23474859 66.3513757 5.6369219 66.23915314 2.8984375 66.22265625 C1.95742187 66.21943359 1.01640625 66.21621094 0.046875 66.21289062 C-0.93796875 66.20451172 -1.9228125 66.19613281 -2.9375 66.1875 C-3.93007812 66.18298828 -4.92265625 66.17847656 -5.9453125 66.17382812 C-8.4011016 66.16202145 -10.85677104 66.145554 -13.3125 66.125 C-13.30805878 67.28566986 -13.30361755 68.44633972 -13.29904175 69.6421814 C-13.25856251 80.56092617 -13.22854782 91.4796558 -13.20887566 102.39845848 C-13.19842216 108.0124155 -13.18423447 113.62631212 -13.16162109 119.24023438 C-13.13994846 124.65426861 -13.12794319 130.06824462 -13.12274551 135.48231888 C-13.1190397 137.5516616 -13.11180356 139.62100101 -13.10103989 141.69031906 C-13.08659909 144.58056365 -13.08451894 147.4705652 -13.08544922 150.36083984 C-13.07825867 151.22326797 -13.07106812 152.08569611 -13.06365967 152.97425842 C-13.08439568 158.89689568 -13.08439568 158.89689568 -15.3125 161.125 C-19.12704286 161.57920837 -22.97402514 161.44904776 -26.8125 161.4375 C-27.88371094 161.45361328 -28.95492188 161.46972656 -30.05859375 161.48632812 C-31.08082031 161.48697266 -32.10304688 161.48761719 -33.15625 161.48828125 C-34.56680664 161.49275269 -34.56680664 161.49275269 -36.00585938 161.49731445 C-37.14764648 161.3130188 -37.14764648 161.3130188 -38.3125 161.125 C-40.92865703 157.20076446 -40.57806915 153.88961941 -40.53955078 149.33911133 C-40.53984283 148.44134476 -40.54013489 147.54357819 -40.54043579 146.61860657 C-40.53904125 143.64798351 -40.52347415 140.67761055 -40.5078125 137.70703125 C-40.50408281 135.6486576 -40.50123563 133.59028218 -40.49923706 131.53190613 C-40.49159712 126.11165473 -40.47194549 120.69151035 -40.4498291 115.27130127 C-40.42937847 109.74142912 -40.42023702 104.21153969 -40.41015625 98.68164062 C-40.38869998 87.82938004 -40.35455964 76.97719892 -40.3125 66.125 C-41.15554688 66.14820312 -41.99859375 66.17140625 -42.8671875 66.1953125 C-43.96289062 66.21335937 -45.05859375 66.23140625 -46.1875 66.25 C-47.82332031 66.28480469 -47.82332031 66.28480469 -49.4921875 66.3203125 C-52.3125 66.125 -52.3125 66.125 -54.3125 64.125 C-54.53955078 61.87841797 -54.53955078 61.87841797 -54.5078125 59.1171875 C-54.50136719 58.13105469 -54.49492188 57.14492187 -54.48828125 56.12890625 C-54.47152344 55.09636719 -54.45476562 54.06382813 -54.4375 53 C-54.42847656 51.95972656 -54.41945313 50.91945312 -54.41015625 49.84765625 C-54.38653747 47.27320908 -54.35360149 44.69921788 -54.3125 42.125 C-51.54797967 40.74273984 -49.2663637 41.02974613 -46.1875 41.0625 C-45.09179688 41.07152344 -43.99609375 41.08054688 -42.8671875 41.08984375 C-42.02414062 41.10144531 -41.18109375 41.11304688 -40.3125 41.125 C-40.35375 39.8875 -40.395 38.65 -40.4375 37.375 C-40.40681035 27.63103653 -39.22711998 17.78320315 -32.66015625 10.22265625 C-23.64526396 1.50272976 -12.03470914 -0.05790558 0 0 Z " fill="#273651" transform="translate(1190.3125,39.875)"/>
<path d="M0 0 C2.32891212 3.49336818 2.23551143 4.86007865 2.1953125 8.98046875 C2.18886719 10.14384766 2.18242188 11.30722656 2.17578125 12.50585938 C2.15902344 13.72080078 2.14226563 14.93574219 2.125 16.1875 C2.11597656 17.41404297 2.10695313 18.64058594 2.09765625 19.90429688 C2.07406017 22.93639295 2.04113841 25.96809938 2 29 C2.68626465 28.98952637 3.3725293 28.97905273 4.07958984 28.96826172 C7.17802289 28.92678126 10.27639761 28.90069931 13.375 28.875 C14.45523438 28.85824219 15.53546875 28.84148437 16.6484375 28.82421875 C17.6796875 28.81777344 18.7109375 28.81132813 19.7734375 28.8046875 C21.20308838 28.78897705 21.20308838 28.78897705 22.66162109 28.77294922 C25 29 25 29 27 31 C27.45027679 34.48053949 27.32407972 37.99366192 27.3125 41.5 C27.32861328 42.47582031 27.34472656 43.45164063 27.36132812 44.45703125 C27.36197266 45.38902344 27.36261719 46.32101563 27.36328125 47.28125 C27.36626221 48.13783203 27.36924316 48.99441406 27.37231445 49.87695312 C27.1880188 50.92786133 27.1880188 50.92786133 27 52 C23.69711664 54.20192224 22.72537273 54.23959968 18.89453125 54.1953125 C17.91162109 54.18886719 16.92871094 54.18242188 15.91601562 54.17578125 C14.89185547 54.15902344 13.86769531 54.14226562 12.8125 54.125 C11.77673828 54.11597656 10.74097656 54.10695312 9.67382812 54.09765625 C7.11565315 54.0740786 4.55794252 54.0411703 2 54 C2.00444122 55.14592117 2.00888245 56.29184235 2.01345825 57.4724884 C2.05395748 68.25847612 2.08396185 79.04444846 2.10362434 89.83049488 C2.11407275 95.37604243 2.12825123 100.92152872 2.15087891 106.46704102 C2.17256958 111.81624137 2.18456066 117.16538271 2.18975449 122.51462364 C2.19345703 124.55802019 2.20068694 126.60141342 2.21146011 128.64478493 C2.22592482 131.50129872 2.22798005 134.35756695 2.22705078 137.21411133 C2.23424133 138.06359344 2.24143188 138.91307556 2.24884033 139.78829956 C2.23498277 143.71082829 2.22583824 145.66124264 0 149 C-2.43017578 149.34057617 -2.43017578 149.34057617 -5.4453125 149.29296875 C-6.52167969 149.28330078 -7.59804688 149.27363281 -8.70703125 149.26367188 C-9.83496094 149.23853516 -10.96289062 149.21339844 -12.125 149.1875 C-13.26066406 149.17396484 -14.39632812 149.16042969 -15.56640625 149.14648438 C-18.37807387 149.11104319 -21.18880417 149.06163517 -24 149 C-25.66975427 145.66049147 -25.12883006 141.90709514 -25.11352539 138.23583984 C-25.11367142 137.32846573 -25.11381744 136.42109161 -25.1139679 135.48622131 C-25.11326951 132.47776932 -25.10548054 129.46937872 -25.09765625 126.4609375 C-25.09579181 124.37871332 -25.09436803 122.29648869 -25.09336853 120.21426392 C-25.08954541 114.72663162 -25.07971686 109.23902567 -25.06866455 103.75140381 C-25.05844602 98.15458533 -25.05386996 92.55776261 -25.04882812 86.9609375 C-25.03809443 75.97394674 -25.02102045 64.98697556 -25 54 C-25.98742187 54.02320313 -26.97484375 54.04640625 -27.9921875 54.0703125 C-29.27351562 54.08835938 -30.55484375 54.10640625 -31.875 54.125 C-33.15117188 54.14820313 -34.42734375 54.17140625 -35.7421875 54.1953125 C-39 54 -39 54 -41 52 C-41.22705078 49.75341797 -41.22705078 49.75341797 -41.1953125 46.9921875 C-41.18886719 46.00605469 -41.18242188 45.01992187 -41.17578125 44.00390625 C-41.15902344 42.97136719 -41.14226563 41.93882813 -41.125 40.875 C-41.11597656 39.83472656 -41.10695313 38.79445312 -41.09765625 37.72265625 C-41.07403747 35.14820908 -41.04110149 32.57421788 -41 30 C-37.99686252 28.49843126 -35.20932478 28.90718796 -31.875 28.9375 C-30.59367188 28.94652344 -29.31234375 28.95554687 -27.9921875 28.96484375 C-27.00476563 28.97644531 -26.01734375 28.98804687 -25 29 C-25.02094727 28.31897217 -25.04189453 27.63794434 -25.06347656 26.9362793 C-25.14657452 23.85350278 -25.19863954 20.77096163 -25.25 17.6875 C-25.28351562 16.61564453 -25.31703125 15.54378906 -25.3515625 14.43945312 C-25.36445312 13.41142578 -25.37734375 12.38339844 -25.390625 11.32421875 C-25.41157227 10.37635498 -25.43251953 9.42849121 -25.45410156 8.4519043 C-25 6 -25 6 -23.20776367 4.2265625 C-19.99756857 2.44308134 -16.64051782 1.90937991 -13.0625 1.3125 C-12.35931641 1.18294922 -11.65613281 1.05339844 -10.93164062 0.91992188 C-3.34125519 -0.42457939 -3.34125519 -0.42457939 0 0 Z " fill="#273651" transform="translate(892,52)"/>
</svg>
